# xmcd
#
# Track frame offsets:
#	150
#	14471
#	28215
#	42621
#	59331
#	73578
#	90219
#
# Disc length: 1436 seconds
# Revision: 0
# Processed by: cddbd v1.5.2PL0 Copyright (c) Steve Scherf et al.
# Submitted via: dBpowerAMP V12.0
#
DISCID=59059a07
DTITLE=Leah Daniels - The Story
DYEAR=2018
DGENRE=Country
TTITLE0=1st
TTITLE1=The Story
TTITLE2=Nothing
TTITLE3=To Get Her
TTITLE4=Tell Me Right Now
TTITLE5=Flying
TTITLE6=One More Round
EXTD=
EXTT0=
EXTT1=
EXTT2=
EXTT3=
EXTT4=
EXTT5=
EXTT6=
PLAYORDER=
